<mxfile host="app.diagrams.net" modified="2022-03-22T13:19:00.549Z" agent="5.0 (Windows NT 10.0; Win64; x64) AppleWebKit/537.36 (KHTML, like Gecko) Chrome/99.0.4844.74 Safari/537.36" etag="vJN3ea0XwAIGDReFR0SQ" version="17.1.3" type="github">
  <diagram id="GZn82BFjJsCsJl_G1xaL" name="Page-1">
    <mxGraphModel dx="1689" dy="450" grid="1" gridSize="10" guides="1" tooltips="1" connect="1" arrows="1" fold="1" page="1" pageScale="1" pageWidth="827" pageHeight="1169" math="0" shadow="0">
      <root>
        <mxCell id="0" />
        <mxCell id="1" parent="0" />
        <mxCell id="IOzbQgCnKCAspxKy1Rhd-18" value="" style="edgeStyle=orthogonalEdgeStyle;rounded=0;orthogonalLoop=1;jettySize=auto;html=1;" edge="1" parent="1" source="IOzbQgCnKCAspxKy1Rhd-1" target="IOzbQgCnKCAspxKy1Rhd-17">
          <mxGeometry relative="1" as="geometry" />
        </mxCell>
        <mxCell id="IOzbQgCnKCAspxKy1Rhd-1" value="Recepcionista" style="shape=umlActor;verticalLabelPosition=bottom;verticalAlign=top;html=1;outlineConnect=0;" vertex="1" parent="1">
          <mxGeometry x="-150" y="70" width="30" height="60" as="geometry" />
        </mxCell>
        <mxCell id="IOzbQgCnKCAspxKy1Rhd-5" value="" style="edgeStyle=orthogonalEdgeStyle;rounded=0;orthogonalLoop=1;jettySize=auto;html=1;" edge="1" parent="1" source="IOzbQgCnKCAspxKy1Rhd-2" target="IOzbQgCnKCAspxKy1Rhd-4">
          <mxGeometry relative="1" as="geometry" />
        </mxCell>
        <mxCell id="IOzbQgCnKCAspxKy1Rhd-24" style="edgeStyle=orthogonalEdgeStyle;rounded=0;orthogonalLoop=1;jettySize=auto;html=1;exitX=0;exitY=1;exitDx=0;exitDy=0;dashed=1;" edge="1" parent="1" source="IOzbQgCnKCAspxKy1Rhd-2">
          <mxGeometry relative="1" as="geometry">
            <mxPoint x="170" y="844" as="targetPoint" />
            <Array as="points">
              <mxPoint x="170" y="120" />
            </Array>
          </mxGeometry>
        </mxCell>
        <mxCell id="IOzbQgCnKCAspxKy1Rhd-2" value="paciente" style="whiteSpace=wrap;html=1;verticalAlign=middle;" vertex="1" parent="1">
          <mxGeometry x="160" y="80" width="120" height="40" as="geometry" />
        </mxCell>
        <mxCell id="IOzbQgCnKCAspxKy1Rhd-7" value="" style="edgeStyle=orthogonalEdgeStyle;rounded=0;orthogonalLoop=1;jettySize=auto;html=1;" edge="1" parent="1" source="IOzbQgCnKCAspxKy1Rhd-4" target="IOzbQgCnKCAspxKy1Rhd-6">
          <mxGeometry relative="1" as="geometry" />
        </mxCell>
        <mxCell id="IOzbQgCnKCAspxKy1Rhd-4" value="agenda" style="whiteSpace=wrap;html=1;verticalAlign=middle;" vertex="1" parent="1">
          <mxGeometry x="360" y="80" width="120" height="40" as="geometry" />
        </mxCell>
        <mxCell id="IOzbQgCnKCAspxKy1Rhd-6" value="consulta" style="whiteSpace=wrap;html=1;verticalAlign=middle;" vertex="1" parent="1">
          <mxGeometry x="560" y="80" width="120" height="40" as="geometry" />
        </mxCell>
        <mxCell id="IOzbQgCnKCAspxKy1Rhd-10" style="edgeStyle=orthogonalEdgeStyle;rounded=0;orthogonalLoop=1;jettySize=auto;html=1;exitX=0.5;exitY=1;exitDx=0;exitDy=0;" edge="1" parent="1" source="IOzbQgCnKCAspxKy1Rhd-4" target="IOzbQgCnKCAspxKy1Rhd-4">
          <mxGeometry relative="1" as="geometry" />
        </mxCell>
        <mxCell id="IOzbQgCnKCAspxKy1Rhd-20" style="edgeStyle=orthogonalEdgeStyle;rounded=0;orthogonalLoop=1;jettySize=auto;html=1;exitX=1;exitY=0.25;exitDx=0;exitDy=0;entryX=0;entryY=0.25;entryDx=0;entryDy=0;" edge="1" parent="1" source="IOzbQgCnKCAspxKy1Rhd-11" target="IOzbQgCnKCAspxKy1Rhd-13">
          <mxGeometry relative="1" as="geometry" />
        </mxCell>
        <mxCell id="IOzbQgCnKCAspxKy1Rhd-21" style="edgeStyle=orthogonalEdgeStyle;rounded=0;orthogonalLoop=1;jettySize=auto;html=1;exitX=0;exitY=0.75;exitDx=0;exitDy=0;entryX=1;entryY=0.75;entryDx=0;entryDy=0;dashed=1;" edge="1" parent="1" source="IOzbQgCnKCAspxKy1Rhd-13" target="IOzbQgCnKCAspxKy1Rhd-11">
          <mxGeometry relative="1" as="geometry" />
        </mxCell>
        <mxCell id="IOzbQgCnKCAspxKy1Rhd-13" value="" style="rounded=0;whiteSpace=wrap;html=1;" vertex="1" parent="1">
          <mxGeometry x="160" y="160" width="20" height="60" as="geometry" />
        </mxCell>
        <mxCell id="IOzbQgCnKCAspxKy1Rhd-19" style="edgeStyle=orthogonalEdgeStyle;rounded=0;orthogonalLoop=1;jettySize=auto;html=1;" edge="1" parent="1" source="IOzbQgCnKCAspxKy1Rhd-17" target="IOzbQgCnKCAspxKy1Rhd-2">
          <mxGeometry relative="1" as="geometry" />
        </mxCell>
        <mxCell id="IOzbQgCnKCAspxKy1Rhd-22" style="edgeStyle=orthogonalEdgeStyle;rounded=0;orthogonalLoop=1;jettySize=auto;html=1;exitX=0;exitY=1;exitDx=0;exitDy=0;dashed=1;startArrow=none;" edge="1" parent="1" source="IOzbQgCnKCAspxKy1Rhd-11">
          <mxGeometry relative="1" as="geometry">
            <mxPoint x="-30" y="840" as="targetPoint" />
            <Array as="points">
              <mxPoint x="-30" y="120" />
              <mxPoint x="-30" y="814" />
            </Array>
          </mxGeometry>
        </mxCell>
        <mxCell id="IOzbQgCnKCAspxKy1Rhd-17" value="recepcionista&amp;nbsp;" style="whiteSpace=wrap;html=1;verticalAlign=middle;" vertex="1" parent="1">
          <mxGeometry x="-40" y="80" width="120" height="40" as="geometry" />
        </mxCell>
        <mxCell id="IOzbQgCnKCAspxKy1Rhd-11" value="" style="rounded=0;whiteSpace=wrap;html=1;" vertex="1" parent="1">
          <mxGeometry x="-40" y="160" width="20" height="60" as="geometry" />
        </mxCell>
        <mxCell id="IOzbQgCnKCAspxKy1Rhd-25" value="consultar paciente" style="text;html=1;strokeColor=none;fillColor=none;align=center;verticalAlign=middle;whiteSpace=wrap;rounded=0;" vertex="1" parent="1">
          <mxGeometry y="150" width="140" height="30" as="geometry" />
        </mxCell>
        <mxCell id="IOzbQgCnKCAspxKy1Rhd-26" value="Text" style="text;html=1;strokeColor=none;fillColor=none;align=center;verticalAlign=middle;whiteSpace=wrap;rounded=0;" vertex="1" parent="1">
          <mxGeometry x="40" y="180" width="60" height="30" as="geometry" />
        </mxCell>
      </root>
    </mxGraphModel>
  </diagram>
</mxfile>
